<svg xmlns="http://www.w3.org/2000/svg" xmlns:xlink="http://www.w3.org/1999/xlink" contentStyleType="text/css" height="797px" preserveAspectRatio="none" style="width:5042px;height:797px;background:#FFFFFF;" version="1.1" viewBox="0 0 5042 797" width="5042px" zoomAndPan="magnify"><defs/><g><!--cluster com--><g id="cluster_com"><path d="M8.5,263 L42.5,263 A3.75,3.75 0 0 1 45,265.5 L52,285.2969 L5032.5,285.2969 A2.5,2.5 0 0 1 5035,287.7969 L5035,788.47 A2.5,2.5 0 0 1 5032.5,790.97 L8.5,790.97 A2.5,2.5 0 0 1 6,788.47 L6,265.5 A2.5,2.5 0 0 1 8.5,263 " fill="none" style="stroke:#000000;stroke-width:1.5;"/><line style="stroke:#000000;stroke-width:1.5;" x1="6" x2="52" y1="285.2969" y2="285.2969"/><text fill="#000000" font-family="sans-serif" font-size="14" font-weight="bold" lengthAdjust="spacing" textLength="33" x="10" y="277.9951">com</text></g><!--cluster makulky--><g id="cluster_makulky"><path d="M32.5,306 L97.5,306 A3.75,3.75 0 0 1 100,308.5 L107,328.2969 L5008.5,328.2969 A2.5,2.5 0 0 1 5011,330.7969 L5011,764.47 A2.5,2.5 0 0 1 5008.5,766.97 L32.5,766.97 A2.5,2.5 0 0 1 30,764.47 L30,308.5 A2.5,2.5 0 0 1 32.5,306 " fill="none" style="stroke:#000000;stroke-width:1.5;"/><line style="stroke:#000000;stroke-width:1.5;" x1="30" x2="107" y1="328.2969" y2="328.2969"/><text fill="#000000" font-family="sans-serif" font-size="14" font-weight="bold" lengthAdjust="spacing" textLength="64" x="34" y="320.9951">makulky</text></g><!--cluster socialcooking--><g id="cluster_socialcooking"><path d="M56.5,349 L164.5,349 A3.75,3.75 0 0 1 167,351.5 L174,371.2969 L4984.5,371.2969 A2.5,2.5 0 0 1 4987,373.7969 L4987,740.47 A2.5,2.5 0 0 1 4984.5,742.97 L56.5,742.97 A2.5,2.5 0 0 1 54,740.47 L54,351.5 A2.5,2.5 0 0 1 56.5,349 " fill="none" style="stroke:#000000;stroke-width:1.5;"/><line style="stroke:#000000;stroke-width:1.5;" x1="54" x2="174" y1="371.2969" y2="371.2969"/><text fill="#000000" font-family="sans-serif" font-size="14" font-weight="bold" lengthAdjust="spacing" textLength="107" x="58" y="363.9951">socialcooking</text></g><!--cluster adapter--><g id="cluster_adapter"><path d="M80.5,397.89 L142.5,397.89 A3.75,3.75 0 0 1 145,400.39 L152,420.1869 L952.5,420.1869 A2.5,2.5 0 0 1 955,422.6869 L955,716.47 A2.5,2.5 0 0 1 952.5,718.97 L80.5,718.97 A2.5,2.5 0 0 1 78,716.47 L78,400.39 A2.5,2.5 0 0 1 80.5,397.89 " fill="none" style="stroke:#000000;stroke-width:1.5;"/><line style="stroke:#000000;stroke-width:1.5;" x1="78" x2="152" y1="420.1869" y2="420.1869"/><text fill="#000000" font-family="sans-serif" font-size="14" font-weight="bold" lengthAdjust="spacing" textLength="61" x="82" y="412.8851">adapter</text></g><!--cluster androidx--><g id="cluster_androidx"><path d="M2881.5,6 L2951.5,6 A3.75,3.75 0 0 1 2954,8.5 L2961,28.2969 L3528.5,28.2969 A2.5,2.5 0 0 1 3531,30.7969 L3531,236.5 A2.5,2.5 0 0 1 3528.5,239 L2881.5,239 A2.5,2.5 0 0 1 2879,236.5 L2879,8.5 A2.5,2.5 0 0 1 2881.5,6 " fill="none" style="stroke:#000000;stroke-width:1.5;"/><line style="stroke:#000000;stroke-width:1.5;" x1="2879" x2="2961" y1="28.2969" y2="28.2969"/><text fill="#000000" font-family="sans-serif" font-size="14" font-weight="bold" lengthAdjust="spacing" textLength="69" x="2883" y="20.9951">androidx</text></g><!--cluster fragment--><g id="cluster_fragment"><path d="M3067.5,49 L3140.5,49 A3.75,3.75 0 0 1 3143,51.5 L3150,71.2969 L3240.5,71.2969 A2.5,2.5 0 0 1 3243,73.7969 L3243,212.5 A2.5,2.5 0 0 1 3240.5,215 L3067.5,215 A2.5,2.5 0 0 1 3065,212.5 L3065,51.5 A2.5,2.5 0 0 1 3067.5,49 " fill="none" style="stroke:#000000;stroke-width:1.5;"/><line style="stroke:#000000;stroke-width:1.5;" x1="3065" x2="3150" y1="71.2969" y2="71.2969"/><text fill="#000000" font-family="sans-serif" font-size="14" font-weight="bold" lengthAdjust="spacing" textLength="72" x="3069" y="63.9951">fragment</text></g><!--cluster app--><g id="cluster_app"><path d="M3091.5,92 L3121.5,92 A3.75,3.75 0 0 1 3124,94.5 L3131,114.2969 L3216.5,114.2969 A2.5,2.5 0 0 1 3219,116.7969 L3219,188.5 A2.5,2.5 0 0 1 3216.5,191 L3091.5,191 A2.5,2.5 0 0 1 3089,188.5 L3089,94.5 A2.5,2.5 0 0 1 3091.5,92 " fill="none" style="stroke:#000000;stroke-width:1.5;"/><line style="stroke:#000000;stroke-width:1.5;" x1="3089" x2="3131" y1="114.2969" y2="114.2969"/><text fill="#000000" font-family="sans-serif" font-size="14" font-weight="bold" lengthAdjust="spacing" textLength="29" x="3093" y="106.9951">app</text></g><!--cluster lifecycle--><g id="cluster_lifecycle"><path d="M2905.5,92 L2971.5,92 A3.75,3.75 0 0 1 2974,94.5 L2981,114.2969 L3038.5,114.2969 A2.5,2.5 0 0 1 3041,116.7969 L3041,188.5 A2.5,2.5 0 0 1 3038.5,191 L2905.5,191 A2.5,2.5 0 0 1 2903,188.5 L2903,94.5 A2.5,2.5 0 0 1 2905.5,92 " fill="none" style="stroke:#000000;stroke-width:1.5;"/><line style="stroke:#000000;stroke-width:1.5;" x1="2903" x2="2981" y1="114.2969" y2="114.2969"/><text fill="#000000" font-family="sans-serif" font-size="14" font-weight="bold" lengthAdjust="spacing" textLength="65" x="2907" y="106.9951">lifecycle</text></g><!--cluster appcompat--><g id="cluster_appcompat"><path d="M3269.5,49 L3357.5,49 A3.75,3.75 0 0 1 3360,51.5 L3367,71.2969 L3504.5,71.2969 A2.5,2.5 0 0 1 3507,73.7969 L3507,212.5 A2.5,2.5 0 0 1 3504.5,215 L3269.5,215 A2.5,2.5 0 0 1 3267,212.5 L3267,51.5 A2.5,2.5 0 0 1 3269.5,49 " fill="none" style="stroke:#000000;stroke-width:1.5;"/><line style="stroke:#000000;stroke-width:1.5;" x1="3267" x2="3367" y1="71.2969" y2="71.2969"/><text fill="#000000" font-family="sans-serif" font-size="14" font-weight="bold" lengthAdjust="spacing" textLength="87" x="3271" y="63.9951">appcompat</text></g><!--cluster app--><g id="cluster_app"><path d="M3293.5,92 L3323.5,92 A3.75,3.75 0 0 1 3326,94.5 L3333,114.2969 L3480.5,114.2969 A2.5,2.5 0 0 1 3483,116.7969 L3483,188.5 A2.5,2.5 0 0 1 3480.5,191 L3293.5,191 A2.5,2.5 0 0 1 3291,188.5 L3291,94.5 A2.5,2.5 0 0 1 3293.5,92 " fill="none" style="stroke:#000000;stroke-width:1.5;"/><line style="stroke:#000000;stroke-width:1.5;" x1="3291" x2="3333" y1="114.2969" y2="114.2969"/><text fill="#000000" font-family="sans-serif" font-size="14" font-weight="bold" lengthAdjust="spacing" textLength="29" x="3295" y="106.9951">app</text></g><!--class perfilFragment--><g id="elem_perfilFragment"><rect codeLine="1" fill="#F1F1F1" height="145.7813" id="perfilFragment" rx="2.5" ry="2.5" style="stroke:#181818;stroke-width:0.5;" width="412" x="1160" y="384"/><ellipse cx="1312.25" cy="400" fill="#ADD1B2" rx="11" ry="11" style="stroke:#181818;stroke-width:1.0;"/><path d="M1315.2188,405.6406 Q1314.6406,405.9375 1314,406.0781 Q1313.3594,406.2344 1312.6563,406.2344 Q1310.1563,406.2344 1308.8281,404.5938 Q1307.5156,402.9375 1307.5156,399.8125 Q1307.5156,396.6875 1308.8281,395.0313 Q1310.1563,393.375 1312.6563,393.375 Q1313.3594,393.375 1314,393.5313 Q1314.6563,393.6875 1315.2188,393.9844 L1315.2188,396.7031 Q1314.5938,396.125 1314,395.8594 Q1313.4063,395.5781 1312.7813,395.5781 Q1311.4375,395.5781 1310.75,396.6563 Q1310.0625,397.7188 1310.0625,399.8125 Q1310.0625,401.9063 1310.75,402.9844 Q1311.4375,404.0469 1312.7813,404.0469 Q1313.4063,404.0469 1314,403.7813 Q1314.5938,403.5 1315.2188,402.9219 L1315.2188,405.6406 Z " fill="#000000"/><text fill="#000000" font-family="sans-serif" font-size="14" lengthAdjust="spacing" textLength="99" x="1332.75" y="404.8467">perfilFragment</text><line style="stroke:#181818;stroke-width:0.5;" x1="1161" x2="1571" y1="416" y2="416"/><rect fill="none" height="6" style="stroke:#C82930;stroke-width:1.0;" width="6" x="1168" y="426.6484"/><text fill="#000000" font-family="sans-serif" font-size="14" lengthAdjust="spacing" textLength="220" x="1180" y="432.9951">FragmentPerfilBinding? _binding</text><rect fill="none" height="6" style="stroke:#C82930;stroke-width:1.0;" width="6" x="1168" y="442.9453"/><text fill="#000000" font-family="sans-serif" font-size="14" lengthAdjust="spacing" textLength="51" x="1180" y="449.292">binding</text><rect fill="none" height="6" style="stroke:#C82930;stroke-width:1.0;" width="6" x="1168" y="459.2422"/><text fill="#000000" font-family="sans-serif" font-size="14" lengthAdjust="spacing" textLength="154" x="1180" y="465.5889">sharedViewModel svm</text><line style="stroke:#181818;stroke-width:0.5;" x1="1161" x2="1571" y1="472.8906" y2="472.8906"/><ellipse cx="1171" cy="486.5391" fill="#84BE84" rx="3" ry="3" style="stroke:#038048;stroke-width:1.0;"/><text fill="#000000" font-family="sans-serif" font-size="14" lengthAdjust="spacing" textLength="162" x="1180" y="489.8857">void onCreate(Bundle?)</text><ellipse cx="1171" cy="502.8359" fill="#84BE84" rx="3" ry="3" style="stroke:#038048;stroke-width:1.0;"/><text fill="#000000" font-family="sans-serif" font-size="14" lengthAdjust="spacing" textLength="386" x="1180" y="506.1826">View? onCreateView(LayoutInflater,ViewGroup?,Bundle?)</text><rect fill="#F24D5C" height="6" style="stroke:#C82930;stroke-width:1.0;" width="6" x="1168" y="516.1328"/><text fill="#000000" font-family="sans-serif" font-size="14" lengthAdjust="spacing" textLength="121" x="1180" y="522.4795">void llamarMenu()</text></g><!--class sharedViewModel--><g id="elem_sharedViewModel"><rect codeLine="11" fill="#F1F1F1" height="64.2969" id="sharedViewModel" rx="2.5" ry="2.5" style="stroke:#181818;stroke-width:0.5;" width="154" x="971" y="424.74"/><ellipse cx="986" cy="440.74" fill="#ADD1B2" rx="11" ry="11" style="stroke:#181818;stroke-width:1.0;"/><path d="M988.9688,446.3806 Q988.3906,446.6775 987.75,446.8181 Q987.1094,446.9744 986.4063,446.9744 Q983.9063,446.9744 982.5781,445.3338 Q981.2656,443.6775 981.2656,440.5525 Q981.2656,437.4275 982.5781,435.7713 Q983.9063,434.115 986.4063,434.115 Q987.1094,434.115 987.75,434.2713 Q988.4063,434.4275 988.9688,434.7244 L988.9688,437.4431 Q988.3438,436.865 987.75,436.5994 Q987.1563,436.3181 986.5313,436.3181 Q985.1875,436.3181 984.5,437.3963 Q983.8125,438.4588 983.8125,440.5525 Q983.8125,442.6463 984.5,443.7244 Q985.1875,444.7869 986.5313,444.7869 Q987.1563,444.7869 987.75,444.5213 Q988.3438,444.24 988.9688,443.6619 L988.9688,446.3806 Z " fill="#000000"/><text fill="#000000" font-family="sans-serif" font-size="14" lengthAdjust="spacing" textLength="122" x="1000" y="445.5867">sharedViewModel</text><line style="stroke:#181818;stroke-width:0.5;" x1="972" x2="1124" y1="456.74" y2="456.74"/><ellipse cx="982" cy="470.3884" fill="none" rx="3" ry="3" style="stroke:#038048;stroke-width:1.0;"/><text fill="#000000" font-family="sans-serif" font-size="14" lengthAdjust="spacing" textLength="102" x="991" y="473.7351">String? usuario</text><line style="stroke:#181818;stroke-width:0.5;" x1="972" x2="1124" y1="481.0369" y2="481.0369"/></g><!--class datosRecetas--><g id="elem_datosRecetas"><rect codeLine="15" fill="#F1F1F1" height="64.2969" id="datosRecetas" rx="2.5" ry="2.5" style="stroke:#181818;stroke-width:0.5;" width="413" x="1606.5" y="424.74"/><ellipse cx="1760.75" cy="440.74" fill="#ADD1B2" rx="11" ry="11" style="stroke:#181818;stroke-width:1.0;"/><path d="M1763.7188,446.3806 Q1763.1406,446.6775 1762.5,446.8181 Q1761.8594,446.9744 1761.1563,446.9744 Q1758.6563,446.9744 1757.3281,445.3338 Q1756.0156,443.6775 1756.0156,440.5525 Q1756.0156,437.4275 1757.3281,435.7713 Q1758.6563,434.115 1761.1563,434.115 Q1761.8594,434.115 1762.5,434.2713 Q1763.1563,434.4275 1763.7188,434.7244 L1763.7188,437.4431 Q1763.0938,436.865 1762.5,436.5994 Q1761.9063,436.3181 1761.2813,436.3181 Q1759.9375,436.3181 1759.25,437.3963 Q1758.5625,438.4588 1758.5625,440.5525 Q1758.5625,442.6463 1759.25,443.7244 Q1759.9375,444.7869 1761.2813,444.7869 Q1761.9063,444.7869 1762.5,444.5213 Q1763.0938,444.24 1763.7188,443.6619 L1763.7188,446.3806 Z " fill="#000000"/><text fill="#000000" font-family="sans-serif" font-size="14" lengthAdjust="spacing" textLength="96" x="1781.25" y="445.5867">datosRecetas</text><line style="stroke:#181818;stroke-width:0.5;" x1="1607.5" x2="2018.5" y1="456.74" y2="456.74"/><line style="stroke:#181818;stroke-width:0.5;" x1="1607.5" x2="2018.5" y1="464.74" y2="464.74"/><ellipse cx="1617.5" cy="478.3884" fill="#84BE84" rx="3" ry="3" style="stroke:#038048;stroke-width:1.0;"/><text fill="#000000" font-family="sans-serif" font-size="14" lengthAdjust="spacing" textLength="387" x="1626.5" y="481.7351">&#171;Create&#187; datosRecetas(,Int,,String,,String,,String,,String)</text></g><!--class creditFragment--><g id="elem_creditFragment"><rect codeLine="19" fill="#F1F1F1" height="96.8906" id="creditFragment" rx="2.5" ry="2.5" style="stroke:#181818;stroke-width:0.5;" width="412" x="2054" y="408.45"/><ellipse cx="2203.25" cy="424.45" fill="#ADD1B2" rx="11" ry="11" style="stroke:#181818;stroke-width:1.0;"/><path d="M2206.2188,430.0906 Q2205.6406,430.3875 2205,430.5281 Q2204.3594,430.6844 2203.6563,430.6844 Q2201.1563,430.6844 2199.8281,429.0438 Q2198.5156,427.3875 2198.5156,424.2625 Q2198.5156,421.1375 2199.8281,419.4813 Q2201.1563,417.825 2203.6563,417.825 Q2204.3594,417.825 2205,417.9813 Q2205.6563,418.1375 2206.2188,418.4344 L2206.2188,421.1531 Q2205.5938,420.575 2205,420.3094 Q2204.4063,420.0281 2203.7813,420.0281 Q2202.4375,420.0281 2201.75,421.1063 Q2201.0625,422.1688 2201.0625,424.2625 Q2201.0625,426.3563 2201.75,427.4344 Q2202.4375,428.4969 2203.7813,428.4969 Q2204.4063,428.4969 2205,428.2313 Q2205.5938,427.95 2206.2188,427.3719 L2206.2188,430.0906 Z " fill="#000000"/><text fill="#000000" font-family="sans-serif" font-size="14" lengthAdjust="spacing" textLength="105" x="2223.75" y="429.2967">creditFragment</text><line style="stroke:#181818;stroke-width:0.5;" x1="2055" x2="2465" y1="440.45" y2="440.45"/><rect fill="none" height="6" style="stroke:#C82930;stroke-width:1.0;" width="6" x="2062" y="451.0984"/><text fill="#000000" font-family="sans-serif" font-size="14" lengthAdjust="spacing" textLength="228" x="2074" y="457.4451">FragmentCreditBinding? _binding</text><rect fill="none" height="6" style="stroke:#C82930;stroke-width:1.0;" width="6" x="2062" y="467.3953"/><text fill="#000000" font-family="sans-serif" font-size="14" lengthAdjust="spacing" textLength="51" x="2074" y="473.742">binding</text><line style="stroke:#181818;stroke-width:0.5;" x1="2055" x2="2465" y1="481.0438" y2="481.0438"/><ellipse cx="2065" cy="494.6922" fill="#84BE84" rx="3" ry="3" style="stroke:#038048;stroke-width:1.0;"/><text fill="#000000" font-family="sans-serif" font-size="14" lengthAdjust="spacing" textLength="386" x="2074" y="498.0389">View? onCreateView(LayoutInflater,ViewGroup?,Bundle?)</text></g><!--class loginFragment--><g id="elem_loginFragment"><rect codeLine="26" fill="#F1F1F1" height="113.1875" id="loginFragment" rx="2.5" ry="2.5" style="stroke:#181818;stroke-width:0.5;" width="412" x="2501" y="400.3"/><ellipse cx="2653.25" cy="416.3" fill="#ADD1B2" rx="11" ry="11" style="stroke:#181818;stroke-width:1.0;"/><path d="M2656.2188,421.9406 Q2655.6406,422.2375 2655,422.3781 Q2654.3594,422.5344 2653.6563,422.5344 Q2651.1563,422.5344 2649.8281,420.8938 Q2648.5156,419.2375 2648.5156,416.1125 Q2648.5156,412.9875 2649.8281,411.3313 Q2651.1563,409.675 2653.6563,409.675 Q2654.3594,409.675 2655,409.8313 Q2655.6563,409.9875 2656.2188,410.2844 L2656.2188,413.0031 Q2655.5938,412.425 2655,412.1594 Q2654.4063,411.8781 2653.7813,411.8781 Q2652.4375,411.8781 2651.75,412.9563 Q2651.0625,414.0188 2651.0625,416.1125 Q2651.0625,418.2063 2651.75,419.2844 Q2652.4375,420.3469 2653.7813,420.3469 Q2654.4063,420.3469 2655,420.0813 Q2655.5938,419.8 2656.2188,419.2219 L2656.2188,421.9406 Z " fill="#000000"/><text fill="#000000" font-family="sans-serif" font-size="14" lengthAdjust="spacing" textLength="99" x="2673.75" y="421.1467">loginFragment</text><line style="stroke:#181818;stroke-width:0.5;" x1="2502" x2="2912" y1="432.3" y2="432.3"/><rect fill="none" height="6" style="stroke:#C82930;stroke-width:1.0;" width="6" x="2509" y="442.9484"/><text fill="#000000" font-family="sans-serif" font-size="14" lengthAdjust="spacing" textLength="224" x="2521" y="449.2951">FragmentLoginBinding? _binding</text><rect fill="none" height="6" style="stroke:#C82930;stroke-width:1.0;" width="6" x="2509" y="459.2453"/><text fill="#000000" font-family="sans-serif" font-size="14" lengthAdjust="spacing" textLength="51" x="2521" y="465.592">binding</text><rect fill="none" height="6" style="stroke:#C82930;stroke-width:1.0;" width="6" x="2509" y="475.5422"/><text fill="#000000" font-family="sans-serif" font-size="14" lengthAdjust="spacing" textLength="154" x="2521" y="481.8889">sharedViewModel svm</text><line style="stroke:#181818;stroke-width:0.5;" x1="2502" x2="2912" y1="489.1906" y2="489.1906"/><ellipse cx="2512" cy="502.8391" fill="#84BE84" rx="3" ry="3" style="stroke:#038048;stroke-width:1.0;"/><text fill="#000000" font-family="sans-serif" font-size="14" lengthAdjust="spacing" textLength="386" x="2521" y="506.1857">View? onCreateView(LayoutInflater,ViewGroup?,Bundle?)</text></g><!--class contenidoCeldaFragment--><g id="elem_contenidoCeldaFragment"><rect codeLine="34" fill="#F1F1F1" height="129.4844" id="contenidoCeldaFragment" rx="2.5" ry="2.5" style="stroke:#181818;stroke-width:0.5;" width="412" x="2948" y="392.15"/><ellipse cx="3062.25" cy="408.15" fill="#ADD1B2" rx="11" ry="11" style="stroke:#181818;stroke-width:1.0;"/><path d="M3065.2188,413.7906 Q3064.6406,414.0875 3064,414.2281 Q3063.3594,414.3844 3062.6563,414.3844 Q3060.1563,414.3844 3058.8281,412.7438 Q3057.5156,411.0875 3057.5156,407.9625 Q3057.5156,404.8375 3058.8281,403.1813 Q3060.1563,401.525 3062.6563,401.525 Q3063.3594,401.525 3064,401.6813 Q3064.6563,401.8375 3065.2188,402.1344 L3065.2188,404.8531 Q3064.5938,404.275 3064,404.0094 Q3063.4063,403.7281 3062.7813,403.7281 Q3061.4375,403.7281 3060.75,404.8063 Q3060.0625,405.8688 3060.0625,407.9625 Q3060.0625,410.0563 3060.75,411.1344 Q3061.4375,412.1969 3062.7813,412.1969 Q3063.4063,412.1969 3064,411.9313 Q3064.5938,411.65 3065.2188,411.0719 L3065.2188,413.7906 Z " fill="#000000"/><text fill="#000000" font-family="sans-serif" font-size="14" lengthAdjust="spacing" textLength="175" x="3082.75" y="412.9967">contenidoCeldaFragment</text><line style="stroke:#181818;stroke-width:0.5;" x1="2949" x2="3359" y1="424.15" y2="424.15"/><rect fill="none" height="6" style="stroke:#C82930;stroke-width:1.0;" width="6" x="2956" y="434.7984"/><text fill="#000000" font-family="sans-serif" font-size="14" lengthAdjust="spacing" textLength="298" x="2968" y="441.1451">FragmentContenidoCeldaBinding? _binding</text><rect fill="none" height="6" style="stroke:#C82930;stroke-width:1.0;" width="6" x="2956" y="451.0953"/><text fill="#000000" font-family="sans-serif" font-size="14" lengthAdjust="spacing" textLength="51" x="2968" y="457.442">binding</text><line style="stroke:#181818;stroke-width:0.5;" x1="2949" x2="3359" y1="464.7438" y2="464.7438"/><ellipse cx="2959" cy="478.3922" fill="#84BE84" rx="3" ry="3" style="stroke:#038048;stroke-width:1.0;"/><text fill="#000000" font-family="sans-serif" font-size="14" lengthAdjust="spacing" textLength="386" x="2968" y="481.7389">View? onCreateView(LayoutInflater,ViewGroup?,Bundle?)</text><rect fill="#F24D5C" height="6" style="stroke:#C82930;stroke-width:1.0;" width="6" x="2956" y="491.6891"/><text fill="#000000" font-family="sans-serif" font-size="14" lengthAdjust="spacing" textLength="121" x="2968" y="498.0357">void llamarMenu()</text><ellipse cx="2959" cy="510.9859" fill="#84BE84" rx="3" ry="3" style="stroke:#038048;stroke-width:1.0;"/><text fill="#000000" font-family="sans-serif" font-size="14" lengthAdjust="spacing" textLength="146" x="2968" y="514.3326">void onDestroyView()</text></g><!--class MainActivity--><g id="elem_MainActivity"><rect codeLine="43" fill="#F1F1F1" height="80.5938" id="MainActivity" rx="2.5" ry="2.5" style="stroke:#181818;stroke-width:0.5;" width="212" x="3395" y="416.59"/><ellipse cx="3457.25" cy="432.59" fill="#ADD1B2" rx="11" ry="11" style="stroke:#181818;stroke-width:1.0;"/><path d="M3460.2188,438.2306 Q3459.6406,438.5275 3459,438.6681 Q3458.3594,438.8244 3457.6563,438.8244 Q3455.1563,438.8244 3453.8281,437.1838 Q3452.5156,435.5275 3452.5156,432.4025 Q3452.5156,429.2775 3453.8281,427.6213 Q3455.1563,425.965 3457.6563,425.965 Q3458.3594,425.965 3459,426.1213 Q3459.6563,426.2775 3460.2188,426.5744 L3460.2188,429.2931 Q3459.5938,428.715 3459,428.4494 Q3458.4063,428.1681 3457.7813,428.1681 Q3456.4375,428.1681 3455.75,429.2463 Q3455.0625,430.3088 3455.0625,432.4025 Q3455.0625,434.4963 3455.75,435.5744 Q3456.4375,436.6369 3457.7813,436.6369 Q3458.4063,436.6369 3459,436.3713 Q3459.5938,436.09 3460.2188,435.5119 L3460.2188,438.2306 Z " fill="#000000"/><text fill="#000000" font-family="sans-serif" font-size="14" lengthAdjust="spacing" textLength="79" x="3477.75" y="437.4367">MainActivity</text><line style="stroke:#181818;stroke-width:0.5;" x1="3396" x2="3606" y1="448.59" y2="448.59"/><rect fill="none" height="6" style="stroke:#C82930;stroke-width:1.0;" width="6" x="3403" y="459.2384"/><text fill="#000000" font-family="sans-serif" font-size="14" lengthAdjust="spacing" textLength="186" x="3415" y="465.5851">ActivityMainBinding binding</text><line style="stroke:#181818;stroke-width:0.5;" x1="3396" x2="3606" y1="472.8869" y2="472.8869"/><ellipse cx="3406" cy="486.5353" fill="#84BE84" rx="3" ry="3" style="stroke:#038048;stroke-width:1.0;"/><text fill="#000000" font-family="sans-serif" font-size="14" lengthAdjust="spacing" textLength="162" x="3415" y="489.882">void onCreate(Bundle?)</text></g><!--class SplashActivity--><g id="elem_SplashActivity"><rect codeLine="49" fill="#F1F1F1" height="64.2969" id="SplashActivity" rx="2.5" ry="2.5" style="stroke:#181818;stroke-width:0.5;" width="188" x="3642" y="424.74"/><ellipse cx="3685.35" cy="440.74" fill="#ADD1B2" rx="11" ry="11" style="stroke:#181818;stroke-width:1.0;"/><path d="M3688.3188,446.3806 Q3687.7406,446.6775 3687.1,446.8181 Q3686.4594,446.9744 3685.7563,446.9744 Q3683.2563,446.9744 3681.9281,445.3338 Q3680.6156,443.6775 3680.6156,440.5525 Q3680.6156,437.4275 3681.9281,435.7713 Q3683.2563,434.115 3685.7563,434.115 Q3686.4594,434.115 3687.1,434.2713 Q3687.7563,434.4275 3688.3188,434.7244 L3688.3188,437.4431 Q3687.6938,436.865 3687.1,436.5994 Q3686.5063,436.3181 3685.8813,436.3181 Q3684.5375,436.3181 3683.85,437.3963 Q3683.1625,438.4588 3683.1625,440.5525 Q3683.1625,442.6463 3683.85,443.7244 Q3684.5375,444.7869 3685.8813,444.7869 Q3686.5063,444.7869 3687.1,444.5213 Q3687.6938,444.24 3688.3188,443.6619 L3688.3188,446.3806 Z " fill="#000000"/><text fill="#000000" font-family="sans-serif" font-size="14" lengthAdjust="spacing" textLength="93" x="3705.65" y="445.5867">SplashActivity</text><line style="stroke:#181818;stroke-width:0.5;" x1="3643" x2="3829" y1="456.74" y2="456.74"/><line style="stroke:#181818;stroke-width:0.5;" x1="3643" x2="3829" y1="464.74" y2="464.74"/><ellipse cx="3653" cy="478.3884" fill="#84BE84" rx="3" ry="3" style="stroke:#038048;stroke-width:1.0;"/><text fill="#000000" font-family="sans-serif" font-size="14" lengthAdjust="spacing" textLength="162" x="3662" y="481.7351">void onCreate(Bundle?)</text></g><!--class recetasProvider$Companion--><g id="elem_recetasProvider$Companion"><rect codeLine="53" fill="#F1F1F1" height="64.2969" id="recetasProvider$Companion" rx="2.5" ry="2.5" style="stroke:#181818;stroke-width:0.5;" width="228" x="3857" y="614.23"/><ellipse cx="3872" cy="630.23" fill="#ADD1B2" rx="11" ry="11" style="stroke:#181818;stroke-width:1.0;"/><path d="M3874.9688,635.8706 Q3874.3906,636.1675 3873.75,636.3081 Q3873.1094,636.4644 3872.4063,636.4644 Q3869.9063,636.4644 3868.5781,634.8238 Q3867.2656,633.1675 3867.2656,630.0425 Q3867.2656,626.9175 3868.5781,625.2613 Q3869.9063,623.605 3872.4063,623.605 Q3873.1094,623.605 3873.75,623.7613 Q3874.4063,623.9175 3874.9688,624.2144 L3874.9688,626.9331 Q3874.3438,626.355 3873.75,626.0894 Q3873.1563,625.8081 3872.5313,625.8081 Q3871.1875,625.8081 3870.5,626.8863 Q3869.8125,627.9488 3869.8125,630.0425 Q3869.8125,632.1363 3870.5,633.2144 Q3871.1875,634.2769 3872.5313,634.2769 Q3873.1563,634.2769 3873.75,634.0113 Q3874.3438,633.73 3874.9688,633.1519 L3874.9688,635.8706 Z " fill="#000000"/><text fill="#000000" font-family="sans-serif" font-size="14" lengthAdjust="spacing" textLength="196" x="3886" y="635.0767">recetasProvider$Companion</text><line style="stroke:#181818;stroke-width:0.5;" x1="3858" x2="4084" y1="646.23" y2="646.23"/><ellipse cx="3868" cy="659.8784" fill="none" rx="3" ry="3" style="stroke:#038048;stroke-width:1.0;"/><text fill="#000000" font-family="sans-serif" font-size="14" lengthAdjust="spacing" textLength="84" x="3877" y="663.2251">listaRecetas</text><line style="stroke:#181818;stroke-width:0.5;" x1="3858" x2="4084" y1="670.5269" y2="670.5269"/></g><!--class recetasProvider--><g id="elem_recetasProvider"><rect codeLine="57" fill="#F1F1F1" height="64.2969" id="recetasProvider" rx="2.5" ry="2.5" style="stroke:#181818;stroke-width:0.5;" width="212" x="3865" y="424.74"/><ellipse cx="3912.75" cy="440.74" fill="#ADD1B2" rx="11" ry="11" style="stroke:#181818;stroke-width:1.0;"/><path d="M3915.7188,446.3806 Q3915.1406,446.6775 3914.5,446.8181 Q3913.8594,446.9744 3913.1563,446.9744 Q3910.6563,446.9744 3909.3281,445.3338 Q3908.0156,443.6775 3908.0156,440.5525 Q3908.0156,437.4275 3909.3281,435.7713 Q3910.6563,434.115 3913.1563,434.115 Q3913.8594,434.115 3914.5,434.2713 Q3915.1563,434.4275 3915.7188,434.7244 L3915.7188,437.4431 Q3915.0938,436.865 3914.5,436.5994 Q3913.9063,436.3181 3913.2813,436.3181 Q3911.9375,436.3181 3911.25,437.3963 Q3910.5625,438.4588 3910.5625,440.5525 Q3910.5625,442.6463 3911.25,443.7244 Q3911.9375,444.7869 3913.2813,444.7869 Q3913.9063,444.7869 3914.5,444.5213 Q3915.0938,444.24 3915.7188,443.6619 L3915.7188,446.3806 Z " fill="#000000"/><text fill="#000000" font-family="sans-serif" font-size="14" lengthAdjust="spacing" textLength="108" x="3933.25" y="445.5867">recetasProvider</text><line style="stroke:#181818;stroke-width:0.5;" x1="3866" x2="4076" y1="456.74" y2="456.74"/><line style="stroke:#181818;stroke-width:0.5;" x1="3866" x2="4076" y1="464.74" y2="464.74"/><ellipse cx="3876" cy="478.3884" fill="#84BE84" rx="3" ry="3" style="stroke:#038048;stroke-width:1.0;"/><text fill="#000000" font-family="sans-serif" font-size="14" lengthAdjust="spacing" textLength="186" x="3885" y="481.7351">&#171;Create&#187; recetasProvider()</text></g><!--class menuFragment--><g id="elem_menuFragment"><rect codeLine="61" fill="#F1F1F1" height="96.8906" id="menuFragment" rx="2.5" ry="2.5" style="stroke:#181818;stroke-width:0.5;" width="412" x="4112" y="408.45"/><ellipse cx="4260.75" cy="424.45" fill="#ADD1B2" rx="11" ry="11" style="stroke:#181818;stroke-width:1.0;"/><path d="M4263.7188,430.0906 Q4263.1406,430.3875 4262.5,430.5281 Q4261.8594,430.6844 4261.1563,430.6844 Q4258.6563,430.6844 4257.3281,429.0438 Q4256.0156,427.3875 4256.0156,424.2625 Q4256.0156,421.1375 4257.3281,419.4813 Q4258.6563,417.825 4261.1563,417.825 Q4261.8594,417.825 4262.5,417.9813 Q4263.1563,418.1375 4263.7188,418.4344 L4263.7188,421.1531 Q4263.0938,420.575 4262.5,420.3094 Q4261.9063,420.0281 4261.2813,420.0281 Q4259.9375,420.0281 4259.25,421.1063 Q4258.5625,422.1688 4258.5625,424.2625 Q4258.5625,426.3563 4259.25,427.4344 Q4259.9375,428.4969 4261.2813,428.4969 Q4261.9063,428.4969 4262.5,428.2313 Q4263.0938,427.95 4263.7188,427.3719 L4263.7188,430.0906 Z " fill="#000000"/><text fill="#000000" font-family="sans-serif" font-size="14" lengthAdjust="spacing" textLength="106" x="4281.25" y="429.2967">menuFragment</text><line style="stroke:#181818;stroke-width:0.5;" x1="4113" x2="4523" y1="440.45" y2="440.45"/><rect fill="none" height="6" style="stroke:#C82930;stroke-width:1.0;" width="6" x="4120" y="451.0984"/><text fill="#000000" font-family="sans-serif" font-size="14" lengthAdjust="spacing" textLength="226" x="4132" y="457.4451">FragmentMenuBinding? _binding</text><rect fill="none" height="6" style="stroke:#C82930;stroke-width:1.0;" width="6" x="4120" y="467.3953"/><text fill="#000000" font-family="sans-serif" font-size="14" lengthAdjust="spacing" textLength="51" x="4132" y="473.742">binding</text><line style="stroke:#181818;stroke-width:0.5;" x1="4113" x2="4523" y1="481.0438" y2="481.0438"/><ellipse cx="4123" cy="494.6922" fill="#84BE84" rx="3" ry="3" style="stroke:#038048;stroke-width:1.0;"/><text fill="#000000" font-family="sans-serif" font-size="14" lengthAdjust="spacing" textLength="386" x="4132" y="498.0389">View? onCreateView(LayoutInflater,ViewGroup?,Bundle?)</text></g><!--class inicioFragment--><g id="elem_inicioFragment"><rect codeLine="75" fill="#F1F1F1" height="145.7813" id="inicioFragment" rx="2.5" ry="2.5" style="stroke:#181818;stroke-width:0.5;" width="412" x="4559" y="384"/><ellipse cx="4710.25" cy="400" fill="#ADD1B2" rx="11" ry="11" style="stroke:#181818;stroke-width:1.0;"/><path d="M4713.2188,405.6406 Q4712.6406,405.9375 4712,406.0781 Q4711.3594,406.2344 4710.6563,406.2344 Q4708.1563,406.2344 4706.8281,404.5938 Q4705.5156,402.9375 4705.5156,399.8125 Q4705.5156,396.6875 4706.8281,395.0313 Q4708.1563,393.375 4710.6563,393.375 Q4711.3594,393.375 4712,393.5313 Q4712.6563,393.6875 4713.2188,393.9844 L4713.2188,396.7031 Q4712.5938,396.125 4712,395.8594 Q4711.4063,395.5781 4710.7813,395.5781 Q4709.4375,395.5781 4708.75,396.6563 Q4708.0625,397.7188 4708.0625,399.8125 Q4708.0625,401.9063 4708.75,402.9844 Q4709.4375,404.0469 4710.7813,404.0469 Q4711.4063,404.0469 4712,403.7813 Q4712.5938,403.5 4713.2188,402.9219 L4713.2188,405.6406 Z " fill="#000000"/><text fill="#000000" font-family="sans-serif" font-size="14" lengthAdjust="spacing" textLength="101" x="4730.75" y="404.8467">inicioFragment</text><line style="stroke:#181818;stroke-width:0.5;" x1="4560" x2="4970" y1="416" y2="416"/><rect fill="none" height="6" style="stroke:#C82930;stroke-width:1.0;" width="6" x="4567" y="426.6484"/><text fill="#000000" font-family="sans-serif" font-size="14" lengthAdjust="spacing" textLength="222" x="4579" y="432.9951">FragmentInicioBinding? _binding</text><rect fill="none" height="6" style="stroke:#C82930;stroke-width:1.0;" width="6" x="4567" y="442.9453"/><text fill="#000000" font-family="sans-serif" font-size="14" lengthAdjust="spacing" textLength="51" x="4579" y="449.292">binding</text><line style="stroke:#181818;stroke-width:0.5;" x1="4560" x2="4970" y1="456.5938" y2="456.5938"/><ellipse cx="4570" cy="470.2422" fill="#84BE84" rx="3" ry="3" style="stroke:#038048;stroke-width:1.0;"/><text fill="#000000" font-family="sans-serif" font-size="14" lengthAdjust="spacing" textLength="386" x="4579" y="473.5889">View? onCreateView(LayoutInflater,ViewGroup?,Bundle?)</text><rect fill="#F24D5C" height="6" style="stroke:#C82930;stroke-width:1.0;" width="6" x="4567" y="483.5391"/><text fill="#000000" font-family="sans-serif" font-size="14" lengthAdjust="spacing" textLength="121" x="4579" y="489.8857">void llamarMenu()</text><rect fill="#F24D5C" height="6" style="stroke:#C82930;stroke-width:1.0;" width="6" x="4567" y="499.8359"/><text fill="#000000" font-family="sans-serif" font-size="14" lengthAdjust="spacing" textLength="153" x="4579" y="506.1826">void initRecyclerView()</text><ellipse cx="4570" cy="519.1328" fill="#84BE84" rx="3" ry="3" style="stroke:#038048;stroke-width:1.0;"/><text fill="#000000" font-family="sans-serif" font-size="14" lengthAdjust="spacing" textLength="146" x="4579" y="522.4795">void onDestroyView()</text></g><!--class recetasViewHolder--><g id="elem_recetasViewHolder"><rect codeLine="68" fill="#F1F1F1" height="96.8906" id="recetasViewHolder" rx="2.5" ry="2.5" style="stroke:#181818;stroke-width:0.5;" width="361" x="94.5" y="597.93"/><ellipse cx="206.25" cy="613.93" fill="#ADD1B2" rx="11" ry="11" style="stroke:#181818;stroke-width:1.0;"/><path d="M209.2188,619.5706 Q208.6406,619.8675 208,620.0081 Q207.3594,620.1644 206.6563,620.1644 Q204.1563,620.1644 202.8281,618.5238 Q201.5156,616.8675 201.5156,613.7425 Q201.5156,610.6175 202.8281,608.9613 Q204.1563,607.305 206.6563,607.305 Q207.3594,607.305 208,607.4613 Q208.6563,607.6175 209.2188,607.9144 L209.2188,610.6331 Q208.5938,610.055 208,609.7894 Q207.4063,609.5081 206.7813,609.5081 Q205.4375,609.5081 204.75,610.5863 Q204.0625,611.6488 204.0625,613.7425 Q204.0625,615.8363 204.75,616.9144 Q205.4375,617.9769 206.7813,617.9769 Q207.4063,617.9769 208,617.7113 Q208.5938,617.43 209.2188,616.8519 L209.2188,619.5706 Z " fill="#000000"/><text fill="#000000" font-family="sans-serif" font-size="14" lengthAdjust="spacing" textLength="129" x="226.75" y="618.7767">recetasViewHolder</text><line style="stroke:#181818;stroke-width:0.5;" x1="95.5" x2="454.5" y1="629.93" y2="629.93"/><ellipse cx="105.5" cy="643.5784" fill="none" rx="3" ry="3" style="stroke:#038048;stroke-width:1.0;"/><text fill="#000000" font-family="sans-serif" font-size="14" lengthAdjust="spacing" textLength="51" x="114.5" y="646.9251">binding</text><line style="stroke:#181818;stroke-width:0.5;" x1="95.5" x2="454.5" y1="654.2269" y2="654.2269"/><ellipse cx="105.5" cy="667.8753" fill="#84BE84" rx="3" ry="3" style="stroke:#038048;stroke-width:1.0;"/><text fill="#000000" font-family="sans-serif" font-size="14" lengthAdjust="spacing" textLength="335" x="114.5" y="671.222">&#171;Create&#187; recetasViewHolder(View,NavController)</text><ellipse cx="105.5" cy="684.1722" fill="#84BE84" rx="3" ry="3" style="stroke:#038048;stroke-width:1.0;"/><text fill="#000000" font-family="sans-serif" font-size="14" lengthAdjust="spacing" textLength="184" x="114.5" y="687.5189">void render(datosRecetas)</text></g><!--class recetasAdapter--><g id="elem_recetasAdapter"><rect codeLine="85" fill="#F1F1F1" height="113.1875" id="recetasAdapter" rx="2.5" ry="2.5" style="stroke:#181818;stroke-width:0.5;" width="449" x="490.5" y="589.78"/><ellipse cx="657.75" cy="605.78" fill="#ADD1B2" rx="11" ry="11" style="stroke:#181818;stroke-width:1.0;"/><path d="M660.7188,611.4206 Q660.1406,611.7175 659.5,611.8581 Q658.8594,612.0144 658.1563,612.0144 Q655.6563,612.0144 654.3281,610.3738 Q653.0156,608.7175 653.0156,605.5925 Q653.0156,602.4675 654.3281,600.8113 Q655.6563,599.155 658.1563,599.155 Q658.8594,599.155 659.5,599.3113 Q660.1563,599.4675 660.7188,599.7644 L660.7188,602.4831 Q660.0938,601.905 659.5,601.6394 Q658.9063,601.3581 658.2813,601.3581 Q656.9375,601.3581 656.25,602.4363 Q655.5625,603.4988 655.5625,605.5925 Q655.5625,607.6863 656.25,608.7644 Q656.9375,609.8269 658.2813,609.8269 Q658.9063,609.8269 659.5,609.5613 Q660.0938,609.28 660.7188,608.7019 L660.7188,611.4206 Z " fill="#000000"/><text fill="#000000" font-family="sans-serif" font-size="14" lengthAdjust="spacing" textLength="106" x="678.25" y="610.6267">recetasAdapter</text><line style="stroke:#181818;stroke-width:0.5;" x1="491.5" x2="938.5" y1="621.78" y2="621.78"/><line style="stroke:#181818;stroke-width:0.5;" x1="491.5" x2="938.5" y1="629.78" y2="629.78"/><ellipse cx="501.5" cy="643.4284" fill="#84BE84" rx="3" ry="3" style="stroke:#038048;stroke-width:1.0;"/><text fill="#000000" font-family="sans-serif" font-size="14" lengthAdjust="spacing" textLength="423" x="510.5" y="646.7751">&#171;Create&#187; recetasAdapter(List&lt;datosRecetas&gt;,NavController)</text><ellipse cx="501.5" cy="659.7253" fill="#84BE84" rx="3" ry="3" style="stroke:#038048;stroke-width:1.0;"/><text fill="#000000" font-family="sans-serif" font-size="14" lengthAdjust="spacing" textLength="380" x="510.5" y="663.072">recetasViewHolder onCreateViewHolder(ViewGroup,Int)</text><ellipse cx="501.5" cy="676.0222" fill="#84BE84" rx="3" ry="3" style="stroke:#038048;stroke-width:1.0;"/><text fill="#000000" font-family="sans-serif" font-size="14" lengthAdjust="spacing" textLength="126" x="510.5" y="679.3689">Int getItemCount()</text><ellipse cx="501.5" cy="692.3191" fill="#84BE84" rx="3" ry="3" style="stroke:#038048;stroke-width:1.0;"/><text fill="#000000" font-family="sans-serif" font-size="14" lengthAdjust="spacing" textLength="318" x="510.5" y="695.6657">void onBindViewHolder(recetasViewHolder,Int)</text></g><!--class ViewHolder--><g id="elem_ViewHolder"><rect fill="#F1F1F1" height="48" id="ViewHolder" rx="2.5" ry="2.5" style="stroke:#181818;stroke-width:0.5;" width="109" x="220.5" y="432.89"/><ellipse cx="235.5" cy="448.89" fill="#ADD1B2" rx="11" ry="11" style="stroke:#181818;stroke-width:1.0;"/><path d="M238.4688,454.5306 Q237.8906,454.8275 237.25,454.9681 Q236.6094,455.1244 235.9063,455.1244 Q233.4063,455.1244 232.0781,453.4838 Q230.7656,451.8275 230.7656,448.7025 Q230.7656,445.5775 232.0781,443.9213 Q233.4063,442.265 235.9063,442.265 Q236.6094,442.265 237.25,442.4213 Q237.9063,442.5775 238.4688,442.8744 L238.4688,445.5931 Q237.8438,445.015 237.25,444.7494 Q236.6563,444.4681 236.0313,444.4681 Q234.6875,444.4681 234,445.5463 Q233.3125,446.6088 233.3125,448.7025 Q233.3125,450.7963 234,451.8744 Q234.6875,452.9369 236.0313,452.9369 Q236.6563,452.9369 237.25,452.6713 Q237.8438,452.39 238.4688,451.8119 L238.4688,454.5306 Z " fill="#000000"/><text fill="#000000" font-family="sans-serif" font-size="14" lengthAdjust="spacing" textLength="77" x="249.5" y="453.7367">ViewHolder</text><line style="stroke:#181818;stroke-width:0.5;" x1="221.5" x2="328.5" y1="464.89" y2="464.89"/><line style="stroke:#181818;stroke-width:0.5;" x1="221.5" x2="328.5" y1="472.89" y2="472.89"/></g><!--class Adapter--><g id="elem_Adapter"><rect fill="#F1F1F1" height="48" id="Adapter" rx="2.5" ry="2.5" style="stroke:#181818;stroke-width:0.5;" width="86" x="672" y="432.89"/><ellipse cx="687" cy="448.89" fill="#ADD1B2" rx="11" ry="11" style="stroke:#181818;stroke-width:1.0;"/><path d="M689.9688,454.5306 Q689.3906,454.8275 688.75,454.9681 Q688.1094,455.1244 687.4063,455.1244 Q684.9063,455.1244 683.5781,453.4838 Q682.2656,451.8275 682.2656,448.7025 Q682.2656,445.5775 683.5781,443.9213 Q684.9063,442.265 687.4063,442.265 Q688.1094,442.265 688.75,442.4213 Q689.4063,442.5775 689.9688,442.8744 L689.9688,445.5931 Q689.3438,445.015 688.75,444.7494 Q688.1563,444.4681 687.5313,444.4681 Q686.1875,444.4681 685.5,445.5463 Q684.8125,446.6088 684.8125,448.7025 Q684.8125,450.7963 685.5,451.8744 Q686.1875,452.9369 687.5313,452.9369 Q688.1563,452.9369 688.75,452.6713 Q689.3438,452.39 689.9688,451.8119 L689.9688,454.5306 Z " fill="#000000"/><text fill="#000000" font-family="sans-serif" font-size="14" lengthAdjust="spacing" textLength="54" x="701" y="453.7367">Adapter</text><line style="stroke:#181818;stroke-width:0.5;" x1="673" x2="757" y1="464.89" y2="464.89"/><line style="stroke:#181818;stroke-width:0.5;" x1="673" x2="757" y1="472.89" y2="472.89"/></g><!--class Fragment--><g id="elem_Fragment"><rect fill="#F1F1F1" height="48" id="Fragment" rx="2.5" ry="2.5" style="stroke:#181818;stroke-width:0.5;" width="98" x="3105" y="127"/><ellipse cx="3120" cy="143" fill="#ADD1B2" rx="11" ry="11" style="stroke:#181818;stroke-width:1.0;"/><path d="M3122.9688,148.6406 Q3122.3906,148.9375 3121.75,149.0781 Q3121.1094,149.2344 3120.4063,149.2344 Q3117.9063,149.2344 3116.5781,147.5938 Q3115.2656,145.9375 3115.2656,142.8125 Q3115.2656,139.6875 3116.5781,138.0313 Q3117.9063,136.375 3120.4063,136.375 Q3121.1094,136.375 3121.75,136.5313 Q3122.4063,136.6875 3122.9688,136.9844 L3122.9688,139.7031 Q3122.3438,139.125 3121.75,138.8594 Q3121.1563,138.5781 3120.5313,138.5781 Q3119.1875,138.5781 3118.5,139.6563 Q3117.8125,140.7188 3117.8125,142.8125 Q3117.8125,144.9063 3118.5,145.9844 Q3119.1875,147.0469 3120.5313,147.0469 Q3121.1563,147.0469 3121.75,146.7813 Q3122.3438,146.5 3122.9688,145.9219 L3122.9688,148.6406 Z " fill="#000000"/><text fill="#000000" font-family="sans-serif" font-size="14" lengthAdjust="spacing" textLength="66" x="3134" y="147.8467">Fragment</text><line style="stroke:#181818;stroke-width:0.5;" x1="3106" x2="3202" y1="159" y2="159"/><line style="stroke:#181818;stroke-width:0.5;" x1="3106" x2="3202" y1="167" y2="167"/></g><!--class ViewModel--><g id="elem_ViewModel"><rect fill="#F1F1F1" height="48" id="ViewModel" rx="2.5" ry="2.5" style="stroke:#181818;stroke-width:0.5;" width="106" x="2919" y="127"/><ellipse cx="2934" cy="143" fill="#ADD1B2" rx="11" ry="11" style="stroke:#181818;stroke-width:1.0;"/><path d="M2936.9688,148.6406 Q2936.3906,148.9375 2935.75,149.0781 Q2935.1094,149.2344 2934.4063,149.2344 Q2931.9063,149.2344 2930.5781,147.5938 Q2929.2656,145.9375 2929.2656,142.8125 Q2929.2656,139.6875 2930.5781,138.0313 Q2931.9063,136.375 2934.4063,136.375 Q2935.1094,136.375 2935.75,136.5313 Q2936.4063,136.6875 2936.9688,136.9844 L2936.9688,139.7031 Q2936.3438,139.125 2935.75,138.8594 Q2935.1563,138.5781 2934.5313,138.5781 Q2933.1875,138.5781 2932.5,139.6563 Q2931.8125,140.7188 2931.8125,142.8125 Q2931.8125,144.9063 2932.5,145.9844 Q2933.1875,147.0469 2934.5313,147.0469 Q2935.1563,147.0469 2935.75,146.7813 Q2936.3438,146.5 2936.9688,145.9219 L2936.9688,148.6406 Z " fill="#000000"/><text fill="#000000" font-family="sans-serif" font-size="14" lengthAdjust="spacing" textLength="74" x="2948" y="147.8467">ViewModel</text><line style="stroke:#181818;stroke-width:0.5;" x1="2920" x2="3024" y1="159" y2="159"/><line style="stroke:#181818;stroke-width:0.5;" x1="2920" x2="3024" y1="167" y2="167"/></g><!--class AppCompatActivity--><g id="elem_AppCompatActivity"><rect fill="#F1F1F1" height="48" id="AppCompatActivity" rx="2.5" ry="2.5" style="stroke:#181818;stroke-width:0.5;" width="160" x="3307" y="127"/><ellipse cx="3322" cy="143" fill="#ADD1B2" rx="11" ry="11" style="stroke:#181818;stroke-width:1.0;"/><path d="M3324.9688,148.6406 Q3324.3906,148.9375 3323.75,149.0781 Q3323.1094,149.2344 3322.4063,149.2344 Q3319.9063,149.2344 3318.5781,147.5938 Q3317.2656,145.9375 3317.2656,142.8125 Q3317.2656,139.6875 3318.5781,138.0313 Q3319.9063,136.375 3322.4063,136.375 Q3323.1094,136.375 3323.75,136.5313 Q3324.4063,136.6875 3324.9688,136.9844 L3324.9688,139.7031 Q3324.3438,139.125 3323.75,138.8594 Q3323.1563,138.5781 3322.5313,138.5781 Q3321.1875,138.5781 3320.5,139.6563 Q3319.8125,140.7188 3319.8125,142.8125 Q3319.8125,144.9063 3320.5,145.9844 Q3321.1875,147.0469 3322.5313,147.0469 Q3323.1563,147.0469 3323.75,146.7813 Q3324.3438,146.5 3324.9688,145.9219 L3324.9688,148.6406 Z " fill="#000000"/><text fill="#000000" font-family="sans-serif" font-size="14" lengthAdjust="spacing" textLength="128" x="3336" y="147.8467">AppCompatActivity</text><line style="stroke:#181818;stroke-width:0.5;" x1="3308" x2="3466" y1="159" y2="159"/><line style="stroke:#181818;stroke-width:0.5;" x1="3308" x2="3466" y1="167" y2="167"/></g><!--reverse link Fragment to perfilFragment--><g id="link_Fragment_perfilFragment"><path codeLine="94" d="M3123.3667,188.7587 C3102.9967,211.9687 3079.97,232.67 3041,247 C3003.14,260.92 1626.61,240.44 1589,255 C1521.94,280.96 1462.38,337.31 1421.72,383.74 " fill="none" id="Fragment-backto-perfilFragment" style="stroke:#181818;stroke-width:1.0;"/><polygon fill="none" points="3135.24,175.23,3118.8572,184.8009,3127.8763,192.7164,3135.24,175.23" style="stroke:#181818;stroke-width:1.0;"/></g><!--reverse link ViewModel to sharedViewModel--><g id="link_ViewModel_sharedViewModel"><path codeLine="95" d="M2900.9,151.7583 C2616,151.0983 1293.78,153.47 1143,255 C1085.08,294.01 1061.57,378.28 1052.77,424.31 " fill="none" id="ViewModel-backto-sharedViewModel" style="stroke:#181818;stroke-width:1.0;"/><polygon fill="none" points="2918.9,151.8,2900.9139,145.7583,2900.8861,157.7583,2918.9,151.8" style="stroke:#181818;stroke-width:1.0;"/></g><!--reverse link Fragment to creditFragment--><g id="link_Fragment_creditFragment"><path codeLine="96" d="M3123.3195,188.6647 C3102.9195,211.8147 3079.91,232.5 3041,247 C2983,268.62 2541.65,232.46 2484,255 C2404.46,286.1 2335.15,359.42 2295.45,408.34 " fill="none" id="Fragment-backto-creditFragment" style="stroke:#181818;stroke-width:1.0;"/><polygon fill="none" points="3135.22,175.16,3118.8179,184.6979,3127.8211,192.6316,3135.22,175.16" style="stroke:#181818;stroke-width:1.0;"/></g><!--reverse link Fragment to loginFragment--><g id="link_Fragment_loginFragment"><path codeLine="97" d="M3122.5902,188.4736 C3102.0002,211.2536 3079.23,231.47 3041,247 C2995.59,265.45 2976.11,235.83 2931,255 C2857.2,286.36 2791.37,352.34 2750.48,400.15 " fill="none" id="Fragment-backto-loginFragment" style="stroke:#181818;stroke-width:1.0;"/><polygon fill="none" points="3134.66,175.12,3118.139,184.4503,3127.0414,192.4969,3134.66,175.12" style="stroke:#181818;stroke-width:1.0;"/></g><!--reverse link Fragment to contenidoCeldaFragment--><g id="link_Fragment_contenidoCeldaFragment"><path codeLine="98" d="M3154,193.34 C3154,239.14 3154,324.18 3154,391.82 " fill="none" id="Fragment-backto-contenidoCeldaFragment" style="stroke:#181818;stroke-width:1.0;"/><polygon fill="none" points="3154,175.34,3148,193.34,3160,193.34,3154,175.34" style="stroke:#181818;stroke-width:1.0;"/></g><!--reverse link AppCompatActivity to MainActivity--><g id="link_AppCompatActivity_MainActivity"><path codeLine="99" d="M3402.082,192.1933 C3421.502,243.9633 3462.05,352.05 3486.14,416.29 " fill="none" id="AppCompatActivity-backto-MainActivity" style="stroke:#181818;stroke-width:1.0;"/><polygon fill="none" points="3395.76,175.34,3396.4643,194.3006,3407.6998,190.0859,3395.76,175.34" style="stroke:#181818;stroke-width:1.0;"/></g><!--reverse link AppCompatActivity to SplashActivity--><g id="link_AppCompatActivity_SplashActivity"><path codeLine="100" d="M3484.5187,178.0614 C3534.2087,194.0114 3579.61,214.79 3624,255 C3676.68,302.72 3710.25,381.2 3725.81,424.6 " fill="none" id="AppCompatActivity-backto-SplashActivity" style="stroke:#181818;stroke-width:1.0;"/><polygon fill="none" points="3467.38,172.56,3482.6849,183.7743,3486.3525,172.3485,3467.38,172.56" style="stroke:#181818;stroke-width:1.0;"/></g><!--reverse link recetasProvider to recetasProvider$Companion--><g id="link_recetasProvider_recetasProvider$Companion"><path codeLine="101" d="M3971,505.27 C3971,539.88 3971,579.24 3971,613.89 " fill="none" id="recetasProvider-backto-recetasProvider$Companion" style="stroke:#181818;stroke-width:1.0;stroke-dasharray:7.0,7.0;"/><ellipse cx="3971" cy="497.27" fill="#FFFFFF" rx="8" ry="8" style="stroke:#181818;stroke-width:1.0;"/><line style="stroke:#181818;stroke-width:1.0;" x1="3971" x2="3971" y1="505.27" y2="489.27"/><line style="stroke:#181818;stroke-width:1.0;" x1="3963" x2="3979" y1="497.27" y2="497.27"/></g><!--reverse link Fragment to menuFragment--><g id="link_Fragment_menuFragment"><path codeLine="102" d="M3191.093,187.3846 C3216.643,210.6346 3246.32,232.78 3291,247 C3333.51,260.53 4052.41,238.85 4094,255 C4173.61,285.93 4242.9,359.29 4282.58,408.27 " fill="none" id="Fragment-backto-menuFragment" style="stroke:#181818;stroke-width:1.0;"/><polygon fill="none" points="3177.78,175.27,3187.0548,191.8223,3195.1312,182.9469,3177.78,175.27" style="stroke:#181818;stroke-width:1.0;"/></g><!--reverse link ViewHolder to recetasViewHolder--><g id="link_ViewHolder_recetasViewHolder"><path codeLine="103" d="M275,499.26 C275,528.22 275,560.29 275,597.53 " fill="none" id="ViewHolder-backto-recetasViewHolder" style="stroke:#181818;stroke-width:1.0;"/><polygon fill="none" points="275,481.26,269,499.26,281,499.26,275,481.26" style="stroke:#181818;stroke-width:1.0;"/></g><!--reverse link Fragment to inicioFragment--><g id="link_Fragment_inicioFragment"><path codeLine="104" d="M3191.0755,187.4229 C3216.6155,210.6929 3246.29,232.86 3291,247 C3324.11,257.47 4508.61,242.49 4541,255 C4608.12,280.94 4667.86,337.13 4708.74,383.5 " fill="none" id="Fragment-backto-inicioFragment" style="stroke:#181818;stroke-width:1.0;"/><polygon fill="none" points="3177.77,175.3,3187.0345,191.858,3195.1164,182.9877,3177.77,175.3" style="stroke:#181818;stroke-width:1.0;"/></g><!--reverse link Adapter to recetasAdapter--><g id="link_Adapter_recetasAdapter"><path codeLine="105" d="M715,499.26 C715,526.15 715,553.27 715,589.39 " fill="none" id="Adapter-backto-recetasAdapter" style="stroke:#181818;stroke-width:1.0;"/><polygon fill="none" points="715,481.26,709,499.26,721,499.26,715,481.26" style="stroke:#181818;stroke-width:1.0;"/></g><!--SRC=[nLRDZjem4BxdANpe8MX3dW21M5PjaQ1QTQLUgwbjM0l74paEBThstMid8JWGDYdfjgVOdl7dR_v39MGPePZ42UnokJl46L81aYBkXDh6ATSR8Tzhs2PS6V8IZCbnyrY8xeLYLd56lduhLrQ3d9RPCsZElWZ-VOsCIvBja-2Ex54mWcgXEHWUtkUAIJuRMO5JdDKIjmjNSC3SBDL6sXCTkRCF6lDq5jNtnYMWb920NdELXwFWLn04jCEuSt8lbi6JqOKvUPQ35kXmkc0O6Cm-SyeDP0N6P5Bodqw9BmkZfJ9HLBvmxJlgyoArj8LfZSgY4BqQbLlTtCUb4hT2jH9RESbDsV9sR2agmvLWkE2IGRi_6oflujUszArhv85dHkEXmEfdr1g4cbCZzi8S2bEE6oUe3F0uNwd5FYyzfLRXsNlhDRGkC5qMoQF6lM1SlrjWae8Ig0fS8aLce2ga6-3Ew_9C7FQYQFCXRqqI5xJ_LdB08BNtZnOxc8yeZpPx52xDF-c6RXbzWhtBTurISbqdeURAQVYjh1ypeGGLsEgnPI7wP-LKdLb2nbfmeDQygg865DgPu-VbzagcLT9mPVDuuhjoUkdroqZwFl02LfZkfegxPJzaoytIy6I1kJA-SSxHtjsB1qeCPtG0YcbxwKUygK8LGvh6TH0dFyVZtlyB9p0fDgNVurDtxu0w6mO3YJL7va2mnfGRIgnr1fr0BHPrhR14dQTfqHXDtNKxuFrfyDT0cuq_wD-5x-BubX4mqCL-tmwwwzchkmxWgwrt8E5cu-n1-TXx_enlTUit]--></g></svg>